<mxfile host="65bd71144e">
    <diagram id="oj5TlfPyaQeViHARKsYx" name="Страница 1">
        <mxGraphModel dx="1685" dy="608" grid="1" gridSize="10" guides="1" tooltips="1" connect="1" arrows="1" fold="1" page="1" pageScale="1" pageWidth="827" pageHeight="1169" math="0" shadow="0">
            <root>
                <mxCell id="0"/>
                <mxCell id="1" parent="0"/>
                <mxCell id="2" value="Random Quote generation" style="swimlane;startSize=50;" vertex="1" parent="1">
                    <mxGeometry x="44" y="130" width="740" height="430" as="geometry"/>
                </mxCell>
                <mxCell id="3" value="Random quote" style="rounded=1;whiteSpace=wrap;html=1;" vertex="1" parent="2">
                    <mxGeometry x="288" y="70" width="164" height="50" as="geometry"/>
                </mxCell>
                <mxCell id="5" value="" style="rounded=1;whiteSpace=wrap;html=1;" vertex="1" parent="2">
                    <mxGeometry x="245" y="140" width="250" height="40" as="geometry"/>
                </mxCell>
                <mxCell id="6" value="NEW QUOTE&amp;nbsp;" style="rounded=0;whiteSpace=wrap;html=1;" vertex="1" parent="2">
                    <mxGeometry x="310" y="210" width="120" height="60" as="geometry"/>
                </mxCell>
            </root>
        </mxGraphModel>
    </diagram>
</mxfile>